<svg width="62" height="16" viewBox="0 0 62 16" fill="none" xmlns="http://www.w3.org/2000/svg">
<path d="M1 7C0.447715 7 -4.82823e-08 7.44772 0 8C4.82823e-08 8.55228 0.447715 9 1 9L1 7ZM61.7071 8.7071C62.0976 8.31658 62.0976 7.68341 61.7071 7.29289L55.3431 0.928927C54.9526 0.538403 54.3195 0.538403 53.9289 0.928928C53.5384 1.31945 53.5384 1.95262 53.9289 2.34314L59.5858 7.99999L53.9289 13.6568C53.5384 14.0474 53.5384 14.6805 53.9289 15.0711C54.3195 15.4616 54.9526 15.4616 55.3431 15.0711L61.7071 8.7071ZM1 9L61 8.99999L61 6.99999L1 7L1 9Z" fill="#463F8D"/>
</svg>
