<svg width="62" height="16" viewBox="0 0 62 16" fill="none" xmlns="http://www.w3.org/2000/svg">
<path d="M61 7C61.5523 7 62 7.44772 62 8C62 8.55228 61.5523 9 61 9L61 7ZM0.292892 8.7071C-0.0976296 8.31658 -0.0976295 7.68341 0.292893 7.29289L6.65685 0.928927C7.04738 0.538403 7.68054 0.538403 8.07107 0.928928C8.46159 1.31945 8.46159 1.95262 8.07107 2.34314L2.41422 7.99999L8.07107 13.6568C8.46159 14.0474 8.46159 14.6805 8.07107 15.0711C7.68054 15.4616 7.04738 15.4616 6.65685 15.0711L0.292892 8.7071ZM61 9L1 8.99999L1 6.99999L61 7L61 9Z" fill="#463F8D"/>
</svg>
