<svg width="18" height="15" viewBox="0 0 18 15" fill="none" xmlns="http://www.w3.org/2000/svg">
<path fill-rule="evenodd" clip-rule="evenodd" d="M0.05625 2.06417C0.16967 1.54878 0.448487 1.08862 0.847037 0.759026C1.24559 0.429438 1.74025 0.249964 2.25 0.25H15.75C16.2598 0.249964 16.7544 0.429438 17.153 0.759026C17.5515 1.08862 17.8303 1.54878 17.9437 2.06417L9 7.733L0.05625 2.06417ZM0 3.3965V11.6845L6.52837 7.5335L0 3.3965ZM7.60613 8.21833L0.214875 12.9165C0.397492 13.3158 0.685717 13.6532 1.046 13.8892C1.40629 14.1253 1.82382 14.2504 2.25 14.25H15.75C16.1761 14.2501 16.5935 14.1247 16.9536 13.8884C17.3136 13.6522 17.6016 13.3147 17.784 12.9153L10.3927 8.21717L9 9.10033L7.60613 8.21717V8.21833ZM11.4716 7.53467L18 11.6845V3.3965L11.4716 7.5335V7.53467Z" fill="#FFEE00"/>
</svg>
