<svg width="75" height="75" viewBox="0 0 75 75" fill="none" xmlns="http://www.w3.org/2000/svg">
<path d="M59.1955 52.3775L37.5 74.073L15.8046 52.3775C11.5137 48.0866 8.59155 42.6196 7.40771 36.6679C6.22388 30.7162 6.8315 24.5471 9.15375 18.9408C11.476 13.3344 15.4086 8.54263 20.4541 5.17128C25.4997 1.79994 31.4317 0.000488281 37.5 0.000488281C43.5683 0.000488281 49.5003 1.79994 54.5459 5.17128C59.5915 8.54263 63.524 13.3344 65.8463 18.9408C68.1685 24.5471 68.7761 30.7162 67.5923 36.6679C66.4085 42.6196 63.4863 48.0866 59.1955 52.3775Z" fill="#3A3285"/>
<path fill-rule="evenodd" clip-rule="evenodd" d="M50.283 37.8748L50.7165 44.844C50.8945 44.8066 51.0827 44.7569 51.2856 44.6978C51.5739 44.6137 52.6461 43.5762 52.6461 43.2291C52.6461 43.0099 52.6139 43.1189 52.5971 42.8798L52.3077 42.1506C51.7582 40.6673 50.9726 39.4253 50.3927 37.9891L50.3364 37.8758L50.283 37.8748ZM48.3843 17.7863C48.355 17.2575 48.096 17.0893 47.7545 16.8162C47.7595 16.5914 47.7475 16.6219 47.7475 16.2142C47.7475 15.4569 46.8525 15.0092 46.1714 15C46.0888 14.999 46.0706 15.0176 46.0157 15.0721C45.8641 15.2227 45.69 15.6919 45.69 15.8067C45.69 15.9955 45.5738 16.3307 45.3961 16.3307L45.2981 16.3306C45.102 16.3306 45.0546 16.2107 44.8572 16.1561V16.3891C44.8572 16.5253 44.9385 16.6218 45.0531 16.6218L45.3927 16.6232L45.9349 18.718C46.4203 18.7659 46.9137 19.0089 47.2576 19.0089H47.4046L47.3066 18.194H47.9434C48.0978 18.194 48.3843 17.9921 48.3843 17.7863ZM50.8184 37.6971L50.6902 37.7672L51.1275 38.6297C51.264 38.9676 51.3549 39.302 51.5199 39.6188L52.8911 42.5306L52.9681 42.7208C53.0037 42.6924 53.5151 41.8935 53.5194 41.8799C53.6045 41.6119 53.7239 41.0651 53.7239 40.7255L50.8184 37.6971ZM51.0249 37.5376L50.8608 37.3584L50.8823 37.1781L54.2628 37.5816L54.2715 37.8164C54.2255 38.8152 54.1628 39.3506 53.8947 40.3602L53.5769 40.0269L51.1766 37.698L51.0249 37.5376ZM48.4333 34.496V34.9033C48.1678 34.8965 46.7239 33.5599 46.7239 33.2089C46.8566 32.3747 46.949 31.8802 47.1615 31.8561C47.6963 31.7954 48.4333 33.6883 48.4333 34.496ZM46.5717 33.9138C46.6894 34.0612 47.0478 34.3337 47.2089 34.4954C47.4147 34.7018 47.5742 34.9282 47.7836 35.1515C48.0779 35.4653 48.6579 36.3976 48.8741 36.5336V36.7084H48.7272L47.9434 36.5918C47.5827 36.5918 46.0457 36.3711 46.0819 36.0678L46.2288 34.7287L46.3758 33.9719L46.3786 33.8428L46.5717 33.9138ZM41.0527 27.0045C41.0111 27.1484 40.7423 28.0161 40.7423 28.0332L40.7422 28.3825C39.98 28.3825 39.0931 27.6957 38.2731 27.5328C37.7256 27.424 38.0426 27.2606 37.848 26.6408C37.6954 26.1549 37.6417 26.1527 37.3205 25.8704C36.8201 25.4306 36.1752 25.1403 35.5511 25.0622C35.2914 25.0296 35.0239 24.9326 34.9618 24.6564L37.8459 24.1924L38.3909 24.1324L40.9038 23.8997C41.0689 24.1007 40.8862 24.7639 41.0527 27.0045ZM44.1714 24.0161V25.2388C43.7118 26.0545 43.7391 25.9473 42.9871 26.3928C42.7185 26.552 41.6515 26.927 41.2811 26.927L41.2208 26.0549L41.2322 24.0743C41.2322 23.8109 42.1245 23.8715 42.3134 23.8454C42.6974 23.7923 43.1297 23.7831 43.5345 23.7831C43.7034 23.7833 43.7242 23.8262 43.8775 23.8413L44.115 23.9027L44.1714 24.0161ZM47.9923 30.4787L48.2863 30.1293C48.3358 30.0491 48.4741 29.8963 48.5802 29.8963L48.6782 29.8965C49.0614 29.8965 49.4739 34.1276 49.5627 34.8368L49.511 34.8454C49.3788 34.74 49.0118 34.1468 48.9813 33.961C48.8806 33.3489 48.9415 33.2773 48.6971 32.785C48.4742 32.336 48.5152 32.2733 48.2013 31.8605C48.0602 31.6748 47.6984 31.2964 47.6984 31.0025C47.6984 30.7863 47.8971 30.5979 47.9923 30.4787ZM50.0008 34.8454C49.7744 33.0535 49.3455 31.2266 49.1191 29.7799L49.1191 29.7218C49.1191 29.4329 50.3927 29.1888 50.3927 29.4916L50.3928 29.8965L50.1968 34.0884L50.0677 35.0941L50.0008 34.8454ZM50.4417 34.6123L50.5397 33.5061L50.6376 31.2936C50.6376 30.7376 50.622 30.1522 50.6339 29.6006C50.6464 29.0162 51.5893 29.6284 51.9603 29.8381C52.09 29.9236 52.0583 29.9593 52.0583 30.1354C51.9684 30.594 51.7861 30.8906 51.6467 31.3285L51.2255 32.7493C51.2255 32.8476 50.803 33.9632 50.7357 34.2629L50.4937 34.8711L50.4417 34.8454V34.6123ZM21.7842 43.695L22.2174 43.7478L22.5681 43.1128V42.5306C22.404 42.4518 22.3427 42.0004 22.2413 41.8126C22.1276 41.6026 21.8823 41.3613 21.8823 41.0749L21.8707 39.7929L21.9312 38.8042L22.2251 37.1158C22.4708 36.6801 22.7562 36.3119 23.161 36.0739C23.3562 35.9592 23.5772 35.829 23.765 35.6856C23.8913 35.5892 24.2375 35.2161 24.2826 35.1945C24.7103 34.9343 25.1255 34.5963 25.6009 34.5008C26.8266 34.5008 26.8144 35.013 27.103 36.1508L27.35 39.2879C27.4131 39.3745 27.6365 40.4939 27.6967 40.6314L27.7117 42.5306C27.7117 42.7255 27.4585 43.4452 27.3478 43.6116C27.1678 43.882 26.9279 44.1892 26.9279 44.6264C26.9279 44.8458 26.9602 44.7365 26.9769 44.9757L27.2218 44.9758C27.4048 44.9758 27.7782 44.8166 27.9076 44.7428L27.9452 44.0901L28.3976 43.5786V43.4038L28.2506 41.2495V40.6673C28.4253 40.2836 28.3915 39.2375 28.406 38.715L28.4465 34.9033V34.6123H28.6914C29.5746 34.6123 30.0403 34.4759 30.7096 34.2744C31.2815 34.1023 31.9165 33.6965 32.5124 33.6807C32.6045 33.9088 32.6691 34.1465 32.9533 34.1465L33.2472 34.1466C33.2587 34.7586 33.5449 34.5733 33.7099 35.0522C34.2284 36.5568 34.2711 37.7696 34.53 39.3175C34.617 39.8379 34.8573 40.9072 35.2067 41.2495C35.2067 41.6818 35.3047 41.6327 35.3047 41.89L35.3047 42.2975C35.1591 42.3675 35.1577 42.5867 35.1577 42.8215L35.1577 42.8798C35.1577 43.1744 35.5496 43.395 35.5496 43.5784L35.5496 43.7532C35.5496 43.8325 35.3135 44.2152 35.2558 44.5099C35.1617 45.1301 36.0215 44.9287 36.3824 44.9757C36.6654 44.9577 36.6621 44.8672 36.8284 44.5923C36.8881 44.4941 36.8758 44.4816 36.8548 44.3615L36.8195 44.1606L36.6763 43.695H36.9213C37.784 44.1506 38.458 44.3353 39.4197 44.3353C40.5041 44.177 41.3906 43.3985 41.8692 42.2395C42.296 41.2057 42.6104 40.3413 42.8782 39.2468C42.9808 38.8277 43.1834 36.7504 43.2921 36.5467L43.8775 36.5336L44.8907 36.6133C45.407 36.6133 45.4539 36.5089 45.4455 37.1153C45.4399 37.5151 45.4884 37.7298 45.4922 38.166C45.4971 38.7392 45.5747 39.3529 45.6886 39.8521C45.7631 40.1787 45.8174 40.4272 45.8764 40.7408C45.9735 41.2571 46.2249 41.8949 46.3467 42.2739C46.5166 42.8049 46.877 43.457 47.1197 43.8925C47.3044 44.2237 47.6574 44.8033 48.1429 45.192C48.386 45.3365 49.0564 45.6967 49.6694 45.8151C50.588 45.9925 51.1131 45.7482 51.8235 45.2635C52.157 45.036 52.3842 44.7168 52.6658 44.4168C52.9236 44.1422 53.7514 42.7409 53.887 42.3168C54.5438 40.265 54.8506 38.5799 54.8506 36.3589C54.8506 35.5066 54.7573 34.7687 54.5856 33.9374C54.2902 32.507 54.0195 31.576 53.1526 30.1677C52.9752 29.8032 52.1212 29.0361 51.7893 28.877C50.9936 28.4956 50.8644 28.4319 49.9928 28.4319C49.702 28.4319 48.7853 28.8809 48.4822 28.9648L48.2373 28.9648L47.7964 28.4408V28.1498L47.9434 27.684V26.9271L47.8454 24.7729V24.4234C47.8454 23.464 48.3522 22.0874 48.5312 21.1049C48.5312 20.3059 48.2158 20.2649 47.8454 19.8822C47.4618 19.3613 47.1305 19.2594 46.5275 19.1779C46.0643 19.1155 45.8816 19.1643 45.3941 19.1812C44.6662 19.2065 44.2693 19.7951 44.2693 20.6973C43.9477 20.9534 43.1767 22.0947 42.8487 22.0947H41.6241C41.5909 21.9471 41.5294 21.8036 41.3791 21.8036L41.1832 21.8037C40.8856 21.8037 40.9 22.0639 40.6933 22.1529L40.6933 22.7352L39.9585 22.7345C36.4313 23.2299 32.9694 23.887 29.4263 24.3071L28.1526 24.3071C27.3027 24.3071 25.9394 22.4141 25.2217 21.7354C25.0862 21.6073 24.8741 21.3759 24.7694 21.225C24.5335 20.8855 22.7256 19.9405 22.4701 19.9405L21.8332 19.9406C21.7085 19.9406 21.6074 20.1384 21.4903 20.2316C19.9472 20.2231 20.6033 21.3825 19.4374 22.4329C19.2811 22.5737 19.1874 22.7412 19.0374 22.8902C18.6456 23.2791 18.0123 23.6437 18.0123 24.3071L18 25.0614L18.1591 25.4133C18.4257 25.4481 18.2391 25.5879 18.5511 25.5879L18.943 25.5879C18.9557 25.7701 18.992 25.7948 18.992 25.9955L19.0075 27.4536L18.894 28.6156C18.8855 29.5165 19.402 29.8566 19.5798 29.9546C19.8649 30.1696 20.4077 29.6547 20.5497 29.4771C20.7612 29.2127 20.7153 28.4303 20.8045 27.975L21.0004 27.9752C21.573 27.9752 21.676 27.6933 22.0292 27.6839L22.6145 27.5097L22.764 28.5574C22.764 29.3524 22.8089 31.7637 23.2049 31.9341L23.2049 32.1089C23.2049 32.3231 23.3518 32.2439 23.3518 32.4581L23.3518 32.7493C23.3518 33.3224 22.6881 34.4807 22.4583 34.8894C22.285 35.198 22.089 35.5747 21.8724 35.8232C21.6973 36.024 21.6393 36.4604 21.4572 36.7695C21.4449 36.7903 21.4323 36.8102 21.419 36.8296C21.3206 36.9727 21.3171 36.9524 21.3246 37.1481L21.3433 37.6398L21.3534 37.8159L21.1474 40.3763V40.7839C21.1474 40.9749 21.2463 41.0022 21.3924 41.0166L21.3923 41.7154C21.3923 42.5161 21.4537 43.2807 21.7843 43.6948L21.7842 43.695ZM50.4918 44.8851L50.0569 37.89C49.812 37.9934 49.8633 38.5375 49.7398 38.9016L49.2659 41.3659C49.2067 41.5999 48.7614 43.5332 48.5185 44.3282C49.2373 44.8731 49.7947 44.9928 50.4918 44.8851ZM48.2577 44.1368C48.0757 44.0041 47.9027 43.8722 47.8037 43.7444C47.4561 43.2957 47.139 43.1008 47.139 42.2912C47.316 42.0777 48.155 40.6501 48.3939 40.2467C48.6458 39.8212 49.42 38.6277 49.511 38.1638L49.6638 38.1064C49.6082 38.9319 49.3989 39.6686 49.1991 40.4714C49.1016 40.8634 48.4592 43.1221 48.2577 44.1368ZM49.315 38.1056L48.0407 40.2007C47.8152 40.5294 47.2167 41.6716 46.9147 41.9482C46.7608 41.1634 46.4248 40.6747 46.4248 39.6775L47.4868 39.0591L47.9731 38.7553C48.4158 38.424 48.9692 37.884 49.2661 37.7563L49.433 37.767L49.315 38.1056ZM48.9831 37.3041C48.693 37.9425 46.6144 39.2612 46.2778 39.27L46.2778 39.1537L46.1798 37.9893L46.1272 36.9412H46.4738L48.4384 37.2385L48.9831 37.3041ZM52.3679 30.2682C52.8562 30.6544 53.1312 31.2164 53.2365 31.9189C53.2365 32.259 51.4078 34.8648 50.9316 35.1362L52.3679 30.2682ZM54.3529 37.1158L53.3809 37.0576L50.9303 36.7843L50.9316 36.5918C51.7033 36.1995 51.7416 36.1037 52.125 35.9141C52.8366 35.5626 53.5809 35.0642 54.2368 34.5878C54.4705 35.8848 54.3888 36.6852 54.3529 37.1158ZM54.0668 34.2047C53.2977 34.7324 52.1444 35.5715 50.9806 36.126C51.1277 35.7958 51.6688 34.9218 51.9114 34.7287C52.433 34.0751 53.0542 33.1674 53.4864 32.4003C53.64 32.4065 54.2378 33.7811 54.0668 34.2047ZM36.7743 41.1913C36.7743 40.6262 38.0602 37.7588 38.3419 37.5816L37.8558 41.1448L37.5022 43.4299C37.318 43.341 36.7743 42.9414 36.7743 42.2393V41.1913ZM40.8167 42.8519C40.7905 42.8756 40.7679 42.8924 40.7473 42.9055C40.7154 42.7189 40.6508 42.5064 40.6443 42.4139C40.6398 42.1733 40.2457 41.0173 40.1607 40.7181C40.0228 40.2333 39.8607 39.4214 39.7625 38.9207L39.6156 38.1056C39.9368 38.225 41.6241 40.5416 41.6241 41.1331C41.6241 41.6388 41.1663 42.5352 40.8167 42.8519ZM40.5723 43.0597C40.1104 43.5886 39.7378 43.7179 39.1308 43.7499L39.0451 40.6682L38.9788 38.9209L38.9297 37.698C39.4328 37.8577 39.6161 39.3115 39.7758 39.8033C39.8747 40.3538 40.3396 42.3826 40.5723 43.0597ZM38.7338 43.7532C38.5656 43.7777 38.0271 43.7578 37.852 43.5784L38.1898 40.5448C38.311 39.6398 38.5204 38.5127 38.5379 37.5816L38.7557 37.6728L38.7338 43.7532ZM40.937 36.504C40.937 36.4942 40.9239 36.3737 41.0536 36.3617L42.5265 36.3561C42.7208 36.4392 42.5605 37.3744 42.4872 38.1279C42.4556 38.4524 40.941 37.1504 40.937 36.5038V36.504ZM38.3419 28.499C38.7361 28.499 39.2044 28.6533 39.5872 28.7931C39.6863 29.2644 39.565 29.5379 39.5176 30.0128L38.5794 30.0151L38.3419 28.499Z" fill="#FFEE00"/>
<path d="M50.283 37.8748L50.7165 44.844C50.8945 44.8066 51.0827 44.7569 51.2856 44.6978C51.5739 44.6137 52.6461 43.5762 52.6461 43.2291C52.6461 43.0099 52.6139 43.1189 52.5971 42.8798L52.3077 42.1506C51.7582 40.6673 50.9726 39.4253 50.3927 37.9891L50.3364 37.8758L50.283 37.8748V37.8748ZM48.3843 17.7863C48.355 17.2575 48.096 17.0893 47.7545 16.8162C47.7595 16.5914 47.7475 16.6219 47.7475 16.2142C47.7475 15.4569 46.8525 15.0092 46.1714 15C46.0888 14.999 46.0706 15.0176 46.0157 15.0721C45.8641 15.2227 45.69 15.6919 45.69 15.8067C45.69 15.9955 45.5738 16.3307 45.3961 16.3307L45.2981 16.3306C45.102 16.3306 45.0546 16.2107 44.8572 16.1561V16.3891C44.8572 16.5253 44.9385 16.6218 45.0531 16.6218L45.3927 16.6232L45.9349 18.718C46.4203 18.7659 46.9137 19.0089 47.2576 19.0089H47.4046L47.3066 18.194H47.9434C48.0978 18.194 48.3843 17.9921 48.3843 17.7863V17.7863ZM50.8184 37.6971L50.6902 37.7672L51.1275 38.6296C51.264 38.9676 51.3549 39.302 51.5199 39.6188L52.8911 42.5306L52.9681 42.7208C53.0037 42.6924 53.5151 41.8935 53.5194 41.8799C53.6045 41.6119 53.7239 41.0651 53.7239 40.7255L50.8184 37.6971V37.6971ZM51.0249 37.5376L50.8608 37.3584L50.8823 37.1781L54.2628 37.5816L54.2715 37.8164C54.2255 38.8152 54.1628 39.3506 53.8947 40.3602L53.5769 40.0269L51.1766 37.698L51.0249 37.5376V37.5376ZM48.4333 34.496V34.9033C48.1678 34.8965 46.7239 33.5599 46.7239 33.2089C46.8566 32.3747 46.949 31.8802 47.1615 31.8561C47.6963 31.7954 48.4333 33.6883 48.4333 34.496V34.496ZM46.5717 33.9138C46.6894 34.0612 47.0478 34.3337 47.2089 34.4954C47.4147 34.7018 47.5742 34.9282 47.7836 35.1515C48.0779 35.4653 48.6579 36.3976 48.8741 36.5336V36.7084H48.7272L47.9434 36.5918C47.5827 36.5918 46.0457 36.3711 46.0819 36.0678L46.2288 34.7287L46.3758 33.9719L46.3786 33.8428L46.5717 33.9138V33.9138ZM41.0527 27.0045C41.0111 27.1484 40.7423 28.0161 40.7423 28.0332L40.7422 28.3825C39.98 28.3825 39.0931 27.6957 38.2731 27.5328C37.7256 27.424 38.0426 27.2606 37.848 26.6408C37.6954 26.1549 37.6417 26.1527 37.3205 25.8704C36.8201 25.4306 36.1752 25.1403 35.5511 25.0622C35.2914 25.0296 35.0239 24.9326 34.9618 24.6564L37.8459 24.1924L38.3909 24.1324L40.9038 23.8997C41.0689 24.1007 40.8862 24.7639 41.0527 27.0045V27.0045ZM44.1714 24.0161V25.2388C43.7118 26.0545 43.7391 25.9473 42.9871 26.3928C42.7185 26.552 41.6515 26.927 41.2811 26.927L41.2208 26.0549L41.2322 24.0743C41.2322 23.8109 42.1245 23.8715 42.3134 23.8454C42.6974 23.7923 43.1297 23.7831 43.5345 23.7831C43.7034 23.7833 43.7242 23.8262 43.8775 23.8413L44.115 23.9027L44.1714 24.0161V24.0161ZM47.9923 30.4787L48.2863 30.1293C48.3358 30.0491 48.4741 29.8963 48.5802 29.8963L48.6782 29.8965C49.0614 29.8965 49.4739 34.1276 49.5627 34.8368L49.511 34.8454C49.3788 34.74 49.0118 34.1468 48.9813 33.961C48.8806 33.3489 48.9415 33.2773 48.6971 32.785C48.4742 32.336 48.5152 32.2733 48.2013 31.8605C48.0602 31.6748 47.6984 31.2964 47.6984 31.0025C47.6984 30.7863 47.8971 30.5979 47.9923 30.4787V30.4787ZM50.0008 34.8454C49.7744 33.0535 49.3455 31.2266 49.1191 29.7799L49.1191 29.7218C49.1191 29.4329 50.3927 29.1888 50.3927 29.4916L50.3928 29.8965L50.1968 34.0884L50.0677 35.0941L50.0008 34.8454V34.8454ZM50.4417 34.6123L50.5397 33.5061L50.6376 31.2936C50.6376 30.7376 50.622 30.1522 50.6339 29.6006C50.6464 29.0162 51.5893 29.6284 51.9603 29.8381C52.09 29.9236 52.0583 29.9593 52.0583 30.1354C51.9684 30.594 51.7861 30.8906 51.6467 31.3285L51.2255 32.7493C51.2255 32.8476 50.803 33.9632 50.7357 34.2629L50.4937 34.8711L50.4417 34.8454V34.6123V34.6123ZM21.7842 43.695L22.2174 43.7478L22.5681 43.1128V42.5306C22.404 42.4518 22.3427 42.0004 22.2413 41.8126C22.1276 41.6026 21.8823 41.3613 21.8823 41.0749L21.8707 39.7929L21.9312 38.8042L22.2251 37.1158C22.4708 36.6801 22.7562 36.3119 23.161 36.0739C23.3562 35.9592 23.5772 35.829 23.765 35.6856C23.8913 35.5892 24.2375 35.2161 24.2826 35.1945C24.7103 34.9343 25.1255 34.5963 25.6009 34.5008C26.8266 34.5008 26.8144 35.013 27.103 36.1508L27.35 39.2879C27.4131 39.3745 27.6365 40.4939 27.6967 40.6314L27.7117 42.5306C27.7117 42.7255 27.4585 43.4452 27.3478 43.6116C27.1678 43.882 26.9279 44.1892 26.9279 44.6264C26.9279 44.8458 26.9602 44.7365 26.9769 44.9757L27.2218 44.9758C27.4048 44.9758 27.7782 44.8166 27.9076 44.7428L27.9452 44.0901L28.3976 43.5786V43.4038L28.2506 41.2495V40.6673C28.4253 40.2837 28.3915 39.2375 28.406 38.715L28.4465 34.9033V34.6123H28.6914C29.5746 34.6123 30.0403 34.4759 30.7096 34.2744C31.2815 34.1023 31.9165 33.6965 32.5124 33.6807C32.6045 33.9088 32.6691 34.1465 32.9533 34.1465L33.2472 34.1466C33.2587 34.7586 33.5449 34.5733 33.7099 35.0522C34.2284 36.5568 34.2711 37.7696 34.53 39.3175C34.617 39.8379 34.8573 40.9071 35.2067 41.2495C35.2067 41.6818 35.3047 41.6327 35.3047 41.89L35.3047 42.2975C35.1591 42.3675 35.1577 42.5867 35.1577 42.8215L35.1577 42.8798C35.1577 43.1744 35.5496 43.395 35.5496 43.5784L35.5496 43.7532C35.5496 43.8325 35.3135 44.2152 35.2558 44.5099C35.1617 45.1301 36.0215 44.9287 36.3824 44.9757C36.6654 44.9577 36.6621 44.8672 36.8284 44.5923C36.8881 44.4941 36.8758 44.4816 36.8548 44.3615L36.8195 44.1606L36.6764 43.695H36.9213C37.784 44.1506 38.458 44.3353 39.4197 44.3353C40.5041 44.177 41.3906 43.3985 41.8692 42.2395C42.296 41.2057 42.6104 40.3413 42.8782 39.2468C42.9808 38.8277 43.1834 36.7504 43.2921 36.5467L43.8775 36.5336L44.8907 36.6133C45.407 36.6133 45.4539 36.5089 45.4455 37.1153C45.4399 37.5151 45.4884 37.7298 45.4922 38.166C45.4971 38.7392 45.5747 39.3529 45.6886 39.8521C45.7631 40.1787 45.8174 40.4272 45.8764 40.7408C45.9735 41.2571 46.2249 41.8949 46.3467 42.2739C46.5166 42.8049 46.877 43.457 47.1197 43.8925C47.3044 44.2237 47.6574 44.8033 48.1429 45.192C48.386 45.3365 49.0564 45.6967 49.6694 45.8151C50.588 45.9925 51.1131 45.7482 51.8235 45.2635C52.157 45.036 52.3842 44.7168 52.6658 44.4168C52.9236 44.1422 53.7514 42.7409 53.887 42.3168C54.5438 40.265 54.8506 38.5799 54.8506 36.3589C54.8506 35.5066 54.7573 34.7687 54.5856 33.9374C54.2902 32.507 54.0195 31.576 53.1526 30.1677C52.9752 29.8032 52.1212 29.0361 51.7893 28.877C50.9936 28.4956 50.8644 28.4319 49.9928 28.4319C49.702 28.4319 48.7853 28.8809 48.4822 28.9648L48.2373 28.9648L47.7964 28.4408V28.1498L47.9434 27.684V26.9271L47.8454 24.7729V24.4234C47.8454 23.464 48.3522 22.0874 48.5312 21.1049C48.5312 20.3059 48.2158 20.2649 47.8454 19.8822C47.4618 19.3613 47.1305 19.2594 46.5275 19.1779C46.0643 19.1155 45.8816 19.1643 45.3941 19.1812C44.6662 19.2065 44.2693 19.7951 44.2693 20.6973C43.9477 20.9534 43.1767 22.0947 42.8487 22.0947H41.6241C41.5909 21.9471 41.5294 21.8036 41.3791 21.8036L41.1832 21.8037C40.8856 21.8037 40.9 22.0639 40.6933 22.1529L40.6933 22.7352L39.9585 22.7345C36.4313 23.2299 32.9694 23.887 29.4263 24.3071L28.1526 24.3071C27.3027 24.3071 25.9394 22.4141 25.2217 21.7354C25.0862 21.6073 24.8741 21.3759 24.7694 21.225C24.5335 20.8855 22.7256 19.9405 22.4701 19.9405L21.8332 19.9406C21.7085 19.9406 21.6074 20.1384 21.4903 20.2316C19.9472 20.2231 20.6033 21.3825 19.4374 22.4329C19.2811 22.5737 19.1874 22.7412 19.0374 22.8902C18.6456 23.2791 18.0123 23.6437 18.0123 24.3071L18 25.0614L18.1591 25.4133C18.4257 25.4481 18.2391 25.5879 18.5511 25.5879L18.943 25.5879C18.9557 25.7701 18.992 25.7948 18.992 25.9955L19.0075 27.4536L18.894 28.6156C18.8855 29.5165 19.402 29.8566 19.5798 29.9546C19.8649 30.1696 20.4077 29.6547 20.5497 29.4771C20.7612 29.2127 20.7153 28.4303 20.8045 27.975L21.0004 27.9752C21.573 27.9752 21.676 27.6933 22.0292 27.6839L22.6145 27.5097L22.764 28.5574C22.764 29.3524 22.8089 31.7637 23.2049 31.9341L23.2049 32.1089C23.2049 32.3231 23.3518 32.2439 23.3518 32.4581L23.3518 32.7493C23.3518 33.3224 22.6881 34.4807 22.4583 34.8894C22.285 35.198 22.089 35.5747 21.8724 35.8232C21.6973 36.024 21.6393 36.4604 21.4572 36.7695C21.4449 36.7903 21.4323 36.8102 21.419 36.8296C21.3206 36.9727 21.3171 36.9524 21.3246 37.1481L21.3433 37.6398L21.3534 37.8159L21.1474 40.3763V40.7839C21.1474 40.9749 21.2463 41.0022 21.3924 41.0166L21.3923 41.7154C21.3923 42.5161 21.4537 43.2807 21.7843 43.6948L21.7842 43.695V43.695ZM50.4918 44.8851L50.0569 37.89C49.812 37.9934 49.8633 38.5375 49.7398 38.9016L49.2659 41.3659C49.2067 41.5999 48.7614 43.5332 48.5185 44.3282C49.2373 44.8732 49.7947 44.9928 50.4918 44.8851V44.8851ZM48.2577 44.1368C48.0757 44.0041 47.9027 43.8722 47.8037 43.7444C47.4561 43.2957 47.139 43.1008 47.139 42.2912C47.316 42.0777 48.155 40.6501 48.3939 40.2467C48.6458 39.8212 49.42 38.6277 49.511 38.1638L49.6638 38.1064C49.6082 38.9319 49.3989 39.6686 49.1991 40.4714C49.1016 40.8634 48.4592 43.1221 48.2577 44.1368V44.1368ZM49.315 38.1056L48.0407 40.2007C47.8152 40.5294 47.2167 41.6716 46.9147 41.9482C46.7608 41.1634 46.4248 40.6747 46.4248 39.6775L47.4868 39.0591L47.9731 38.7553C48.4158 38.424 48.9692 37.884 49.2661 37.7563L49.433 37.767L49.315 38.1056ZM48.9831 37.3041C48.693 37.9425 46.6144 39.2612 46.2778 39.27L46.2778 39.1537L46.1798 37.9893L46.1272 36.9412H46.4738L48.4384 37.2385L48.9831 37.3041ZM52.3679 30.2682C52.8562 30.6544 53.1312 31.2164 53.2365 31.9189C53.2365 32.259 51.4078 34.8648 50.9316 35.1362L52.3679 30.2682ZM54.3529 37.1158L53.3809 37.0576L50.9303 36.7843L50.9316 36.5918C51.7033 36.1995 51.7416 36.1037 52.125 35.9141C52.8366 35.5626 53.5809 35.0642 54.2368 34.5878C54.4705 35.8848 54.3888 36.6852 54.3529 37.1158ZM54.0668 34.2047C53.2977 34.7324 52.1444 35.5715 50.9806 36.126C51.1277 35.7958 51.6688 34.9218 51.9114 34.7287C52.433 34.0751 53.0542 33.1674 53.4864 32.4003C53.64 32.4065 54.2378 33.7811 54.0668 34.2047V34.2047ZM36.7743 41.1913C36.7743 40.6262 38.0602 37.7588 38.3419 37.5816L37.8558 41.1448L37.5022 43.4299C37.318 43.341 36.7743 42.9414 36.7743 42.2393V41.1913V41.1913ZM40.8167 42.8519C40.7905 42.8756 40.7679 42.8924 40.7473 42.9055C40.7154 42.7189 40.6508 42.5064 40.6443 42.4139C40.6398 42.1733 40.2457 41.0173 40.1607 40.7181C40.0228 40.2333 39.8607 39.4214 39.7625 38.9207L39.6156 38.1056C39.9368 38.225 41.6241 40.5416 41.6241 41.1331C41.6241 41.6388 41.1663 42.5352 40.8167 42.8519V42.8519ZM40.5723 43.0597C40.1104 43.5886 39.7378 43.7179 39.1308 43.7499L39.0451 40.6682L38.9788 38.9209L38.9297 37.698C39.4328 37.8577 39.6161 39.3115 39.7758 39.8033C39.8747 40.3538 40.3396 42.3826 40.5723 43.0597ZM38.7338 43.7532C38.5656 43.7777 38.0271 43.7578 37.852 43.5784L38.1898 40.5448C38.311 39.6398 38.5204 38.5127 38.5379 37.5816L38.7557 37.6728L38.7338 43.7532ZM40.937 36.504C40.937 36.4942 40.9239 36.3737 41.0536 36.3617L42.5265 36.3561C42.7208 36.4392 42.5605 37.3744 42.4872 38.1279C42.4556 38.4524 40.941 37.1504 40.937 36.5038V36.504V36.504ZM38.3419 28.499C38.7361 28.499 39.2044 28.6533 39.5872 28.7931C39.6863 29.2644 39.565 29.5379 39.5176 30.0128L38.5794 30.0151L38.3419 28.499V28.499Z" stroke="#2B2B2A" stroke-width="0.0762" stroke-miterlimit="22.9256"/>
</svg>
