<svg width="18" height="22" viewBox="0 0 18 22" fill="none" xmlns="http://www.w3.org/2000/svg">
<path d="M15.364 15.5564L9 22.0001L2.636 15.5564C1.37734 14.282 0.520187 12.6583 0.172928 10.8906C-0.17433 9.12289 0.00390685 7.29064 0.685099 5.62552C1.36629 3.96039 2.51984 2.53719 3.99988 1.53588C5.47992 0.53457 7.21998 0.00012207 9 0.00012207C10.78 0.00012207 12.5201 0.53457 14.0001 1.53588C15.4802 2.53719 16.6337 3.96039 17.3149 5.62552C17.9961 7.29064 18.1743 9.12289 17.8271 10.8906C17.4798 12.6583 16.6227 14.282 15.364 15.5564V15.5564ZM9 11.1378C9.53044 11.1378 10.0391 10.9244 10.4142 10.5447C10.7893 10.1649 11 9.64982 11 9.11274C11 8.57567 10.7893 8.06059 10.4142 7.68082C10.0391 7.30105 9.53044 7.0877 9 7.0877C8.46957 7.0877 7.96086 7.30105 7.58579 7.68082C7.21072 8.06059 7 8.57567 7 9.11274C7 9.64982 7.21072 10.1649 7.58579 10.5447C7.96086 10.9244 8.46957 11.1378 9 11.1378Z" fill="#FFEE00"/>
</svg>
