<svg width="14" height="11" viewBox="0 0 14 11" fill="none" xmlns="http://www.w3.org/2000/svg">
<path d="M6.29956 10.046C6.35919 10.1349 6.43899 10.2075 6.53207 10.2577C6.62516 10.3078 6.72874 10.3341 6.8339 10.3341C6.93906 10.3341 7.04264 10.3078 7.13572 10.2577C7.22881 10.2075 7.3086 10.1349 7.36824 10.046L13.2187 1.37937C13.2864 1.27941 13.3261 1.16233 13.3335 1.04084C13.3409 0.919361 13.3157 0.798123 13.2606 0.690303C13.2055 0.582484 13.1227 0.492206 13.0211 0.42928C12.9195 0.366353 12.803 0.333183 12.6844 0.333375H0.983439C0.865028 0.333876 0.74899 0.367473 0.647805 0.43055C0.546619 0.493628 0.464115 0.5838 0.409163 0.69137C0.354212 0.79894 0.328893 0.919838 0.335929 1.04106C0.342965 1.16229 0.38209 1.27925 0.449097 1.37937L6.29956 10.046Z" fill="#E90000"/>
</svg>
