<svg width="14" height="11" viewBox="0 0 14 11" fill="none" xmlns="http://www.w3.org/2000/svg">
<path d="M6.29956 0.953958C6.35919 0.865131 6.43899 0.792502 6.53207 0.742328C6.62516 0.692153 6.72874 0.665937 6.8339 0.665937C6.93906 0.665937 7.04264 0.692153 7.13572 0.742328C7.22881 0.792502 7.3086 0.865131 7.36824 0.953958L13.2187 9.62063C13.2864 9.72059 13.3261 9.83767 13.3335 9.95916C13.3409 10.0806 13.3157 10.2019 13.2606 10.3097C13.2055 10.4175 13.1227 10.5078 13.0211 10.5707C12.9195 10.6336 12.803 10.6668 12.6844 10.6666H0.983439C0.865028 10.6661 0.74899 10.6325 0.647805 10.5694C0.546619 10.5064 0.464115 10.4162 0.409163 10.3086C0.354212 10.2011 0.328893 10.0802 0.335929 9.95894C0.342965 9.83771 0.38209 9.72075 0.449097 9.62063L6.29956 0.953958Z" fill="#00E917"/>
</svg>
