<svg width="16" height="36" viewBox="0 0 16 36" fill="none" xmlns="http://www.w3.org/2000/svg">
<path d="M9 1C9 0.447715 8.55228 -2.41411e-08 8 0C7.44772 2.41411e-08 7 0.447715 7 1L9 1ZM7.29289 35.7071C7.68342 36.0976 8.31658 36.0976 8.70711 35.7071L15.0711 29.3431C15.4616 28.9526 15.4616 28.3195 15.0711 27.9289C14.6805 27.5384 14.0474 27.5384 13.6569 27.9289L8 33.5858L2.34315 27.9289C1.95262 27.5384 1.31946 27.5384 0.928933 27.9289C0.538409 28.3195 0.538409 28.9526 0.928933 29.3431L7.29289 35.7071ZM7 1L7 35L9 35L9 1L7 1Z" fill="#FFEE00"/>
</svg>
