<svg width="51" height="36" viewBox="0 0 51 36" fill="none" xmlns="http://www.w3.org/2000/svg">
<path d="M9 1C9 0.447715 8.55228 -2.41411e-08 8 0C7.44772 2.41411e-08 7 0.447715 7 1L9 1ZM7.29289 35.7071C7.68342 36.0976 8.31658 36.0976 8.70711 35.7071L15.0711 29.3431C15.4616 28.9526 15.4616 28.3195 15.0711 27.9289C14.6805 27.5384 14.0474 27.5384 13.6569 27.9289L8 33.5858L2.34315 27.9289C1.95262 27.5384 1.31946 27.5384 0.928933 27.9289C0.538409 28.3195 0.538409 28.9526 0.928933 29.3431L7.29289 35.7071ZM7 1L7 35L9 35L9 1L7 1Z" fill="#FFEE00"/>
<g clip-path="url(#clip0)">
<path fill-rule="evenodd" clip-rule="evenodd" d="M33.5 7.375C33.7901 7.375 34.0683 7.48694 34.2734 7.6862C34.4785 7.88546 34.5938 8.15571 34.5938 8.4375V12.6875C34.5938 12.9693 34.4785 13.2395 34.2734 13.4388C34.0683 13.6381 33.7901 13.75 33.5 13.75C33.2099 13.75 32.9317 13.6381 32.7266 13.4388C32.5215 13.2395 32.4062 12.9693 32.4062 12.6875V8.4375C32.4062 8.15571 32.5215 7.88546 32.7266 7.6862C32.9317 7.48694 33.2099 7.375 33.5 7.375V7.375ZM42.25 24.375V11.625C42.25 9.37066 41.3281 7.20865 39.6872 5.61459C38.0462 4.02053 35.8206 3.125 33.5 3.125C31.1794 3.125 28.9538 4.02053 27.3128 5.61459C25.6719 7.20865 24.75 9.37066 24.75 11.625V24.375C24.75 26.6293 25.6719 28.7913 27.3128 30.3854C28.9538 31.9795 31.1794 32.875 33.5 32.875C35.8206 32.875 38.0462 31.9795 39.6872 30.3854C41.3281 28.7913 42.25 26.6293 42.25 24.375ZM33.5 1C30.5992 1 27.8172 2.11942 25.766 4.11199C23.7148 6.10456 22.5625 8.80707 22.5625 11.625V24.375C22.5625 27.1929 23.7148 29.8954 25.766 31.888C27.8172 33.8806 30.5992 35 33.5 35C36.4008 35 39.1828 33.8806 41.234 31.888C43.2852 29.8954 44.4375 27.1929 44.4375 24.375V11.625C44.4375 8.80707 43.2852 6.10456 41.234 4.11199C39.1828 2.11942 36.4008 1 33.5 1V1Z" fill="#FFEE00"/>
</g>
<defs>
<clipPath id="clip0">
<rect width="35" height="34" fill="white" transform="translate(16 1)"/>
</clipPath>
</defs>
</svg>
